<?xml version="1.0" encoding="UTF-8"?>
<svg width="24px" height="24px" viewBox="0 0 24 24" version="1.1" xmlns="http://www.w3.org/2000/svg" xmlns:xlink="http://www.w3.org/1999/xlink">
    <!-- Generator: Sketch 53 (72520) - https://sketchapp.com -->
    <title>icons_outlined_avatar</title>
    <desc>Created with Sketch.</desc>
    <g id="icons_outlined_avatar" stroke="none" stroke-width="1" fill="none" fill-rule="evenodd">
        <path d="M4.2,4.2 L4.2,19.8 L19.8,19.8 L19.8,4.2 L4.2,4.2 Z M4,3 L20,3 C20.5522847,3 21,3.44771525 21,4 L21,20 C21,20.5522847 20.5522847,21 20,21 L4,21 C3.44771525,21 3,20.5522847 3,20 L3,4 C3,3.44771525 3.44771525,3 4,3 Z M16.7623163,16.8 C16.7462312,16.7715621 16.7309169,16.7461993 16.7300977,16.7456973 L13.3079108,14.9138915 C12.1065025,14.2953028 11.8143727,12.8229976 12.6551984,11.7709123 L12.8835348,11.4852058 C13.1149476,11.19565 13.3263158,10.4114864 13.3263158,9.80679046 L13.3263158,8.66680498 C13.3263158,7.84341958 12.7170052,7.2 12,7.2 C11.2840475,7.2 10.6736842,7.84370512 10.6736842,8.66638692 L10.6736842,9.80619369 C10.6736842,10.3915965 10.896468,11.1822467 11.1385398,11.485098 L11.3668761,11.7707653 C12.2093716,12.8247955 11.9140208,14.2958716 10.7282958,14.9065225 L7.25314459,16.7543472 C7.26059869,16.7505076 7.25004705,16.773095 7.23643306,16.8 L16.7623163,16.8 Z M6,16.8769756 C6,16.4202496 6.31462163,15.8879386 6.70364059,15.6875551 L10.1648894,13.8470069 C10.6833692,13.5799383 10.8039263,12.9884199 10.4295175,12.5200042 L10.2011812,12.2343369 C9.73659482,11.6531017 9.47368421,10.566331 9.47368421,9.80619369 L9.47368421,8.66638692 C9.47368421,7.19378209 10.6075934,6 12,6 C13.3952457,6 14.5263158,7.19532015 14.5263158,8.66680498 L14.5263158,9.80679046 C14.5263158,10.5661973 14.2837931,11.6552402 13.8209434,12.234382 L13.5926071,12.5200885 C13.2202773,12.9859671 13.3365859,13.5789317 13.8572351,13.8470069 L17.2963594,15.687705 C17.6849694,15.887795 18,16.4167801 18,16.8769756 L18,17.3684211 C18,17.7172325 17.7172325,18 17.3684211,18 L6.63157895,18 C6.28276753,18 6,17.7172325 6,17.3684211 L6,16.8769756 Z" id="Combined-Shape" fill="#000000" fill-rule="nonzero"></path>
    </g>
</svg>