<?xml version="1.0" encoding="UTF-8"?>
<svg width="24px" height="24px" viewBox="0 0 24 24" version="1.1" xmlns="http://www.w3.org/2000/svg" xmlns:xlink="http://www.w3.org/1999/xlink">
    <!-- Generator: Sketch 60.1 (88133) - https://sketch.com -->
    <title>Icons_Filled_Colorful_female</title>
    <desc>Created with Sketch.</desc>
    <g id="Icons_Filled_Colorful_female" stroke="none" stroke-width="1" fill="none" fill-rule="evenodd">
        <path d="M11.6696667,3.33333333 C15.022247,3.33333333 16.7357557,6.61747646 16.8071929,13.1857627 C16.80982,13.4224706 16.6200168,13.6164478 16.3833083,13.6190223 L13.6873002,13.6186206 C13.5025619,14.1963165 13.7578111,14.7943894 14.3922157,15.1038437 L20.052569,17.8648909 C20.6678682,18.1650259 21.1666667,18.9585035 21.1666667,19.6487967 L21.1666667,20.3333333 C21.1666667,20.8856181 20.7189514,21.3333333 20.1666667,21.3333333 L3.16666667,21.3333333 C2.61438192,21.3333333 2.16666667,20.8856181 2.16666667,20.3333333 L2.16666667,19.6487967 C2.16666667,18.9637077 2.66481757,18.1652412 3.28076427,17.864666 L8.94111743,15.1024763 C9.57287854,14.7941839 9.83150245,14.1976636 9.64695944,13.618887 L6.95201206,13.6186816 C6.71554335,13.6089019 6.5317756,13.4092781 6.54151438,13.1728077 L6.58705841,12.177495 C6.66094827,10.7204057 6.74904157,9.68879928 6.85133829,9.08267585 C7.47974154,5.35929212 9.01239514,3.44440907 11.4492991,3.33802667 L11.6696667,3.33333333 Z" id="路径" fill="#FB8585"></path>
        <path d="M9.0952381,15.3333333 L11.6666667,16.9404762 L9.85397852,19.1308077 C9.70307041,19.313155 9.43291352,19.3386415 9.25056622,19.1877334 C9.15218575,19.1063151 9.0952381,18.9852658 9.0952381,18.8575644 L9.0952381,15.3333333 Z M14.2380952,15.3333333 L14.2380952,18.8575644 C14.2380952,18.9852658 14.1811476,19.1063151 14.0827671,19.1877334 C13.9004198,19.3386415 13.6302629,19.313155 13.4793548,19.1308077 L13.4793548,19.1308077 L11.6666667,16.9404762 L14.2380952,15.3333333 Z" id="形状结合" fill="#FFFFFF"></path>
    </g>
</svg>