<?xml version="1.0" encoding="UTF-8"?>
<svg width="24px" height="24px" viewBox="0 0 24 24" version="1.1" xmlns="http://www.w3.org/2000/svg" xmlns:xlink="http://www.w3.org/1999/xlink">
    <!-- Generator: Sketch 52.2 (67145) - http://www.bohemiancoding.com/sketch -->
    <title>icons_filled_group-detail</title>
    <desc>Created with Sketch.</desc>
    <g id="icons_filled_group-detail" stroke="none" stroke-width="1" fill="none" fill-rule="evenodd">
        <g id="icon14" fill="#000000">
            <path d="M15.1110698,4.00178 C16.9199852,4.05984018 18.3684211,5.53089815 18.3684211,7.33350622 L18.3684211,8.75848807 C18.3684211,9.70774662 17.8639431,11.0690503 17.2468102,11.7929775 L16.9423618,12.1501106 C16.445922,12.7324589 16.6010002,13.4736647 17.2951991,13.8087587 L22.0618125,16.1096313 C22.5799592,16.3597438 23,17.0209751 23,17.5962194 L23,18.1679682 C23,18.6274867 22.6202734,19 22.1566909,19 L21.4832067,19 C21.3608065,17.8393567 20.5814047,16.689663 19.5435184,16.1833954 L14.1269298,13.5412535 L14.3146097,13.3187784 C15.276491,12.1785669 16,10.2021228 16,8.71018568 L16,7.00020747 C16,5.89435381 15.6732669,4.86441043 15.1110698,4.00178 Z M7.83191269,12.350138 C7.09631763,11.4782852 6.5,9.84949648 6.5,8.70929053 L6.5,6.99958038 C6.5,4.79067313 8.29535615,3 10.5,3 C12.709139,3 14.5,4.79298022 14.5,7.00020747 L14.5,8.71018568 C14.5,9.84929595 13.9009324,11.4828603 13.1680872,12.351573 L12.8065546,12.7801327 C12.2170324,13.4789507 12.4011877,14.3683976 13.225549,14.7705104 L18.8859024,17.5315576 C19.5012015,17.8316925 20,18.6251701 20,19.3154633 L20,20.0015619 C20,20.552984 19.5490746,21 18.9985704,21 L2.00142961,21 C1.44835531,21 1,20.5557555 1,20.0015619 L1,19.3154633 C1,18.6303744 1.49815091,17.8319079 2.11409761,17.5313327 L7.77445076,14.769143 C8.59537712,14.36854 8.78625906,13.4812624 8.19344522,12.7786389 L7.83191269,12.350138 Z" id="Combined-Shape"></path>
        </g>
    </g>
</svg>