<?xml version="1.0" encoding="UTF-8"?>
<svg width="24px" height="24px" viewBox="0 0 24 24" version="1.1" xmlns="http://www.w3.org/2000/svg" xmlns:xlink="http://www.w3.org/1999/xlink">
    <!-- Generator: Sketch 56.2 (81672) - https://sketch.com -->
    <title>0.图标/线型/icons_outlined_live_nearby备份 31</title>
    <desc>Created with Sketch.</desc>
    <g id="0.图标/线型/icons_outlined_live_nearby备份-31" stroke="none" stroke-width="1" fill="none" fill-rule="evenodd">
        <path d="M10.573107,12.5 L13.4268326,12.5 C14.295221,12.5 15,13.2413545 15,14.1572754 C15,14.2058889 14.9979024,14.2556071 14.9926586,14.3042205 L13.962876,21.1487783 C13.8892563,21.6380996 13.4688339,22 12.9740054,22 L11.0248854,22 C10.5300569,22 10.1096346,21.6380996 10.0360148,21.1487783 L9.00623228,14.3042205 C8.92967146,13.392719 9.56732864,12.588388 10.4325707,12.5066291 C10.4797657,12.5022097 10.525912,12.5 10.573107,12.5 Z M13.7995797,14.175524 C13.7996809,14.1745852 13.8,14.1679376 13.8,14.1572754 C13.8,13.8910193 13.6185916,13.7 13.4268326,13.7 L10.573107,13.7 C10.5637829,13.7 10.5549688,13.7004173 10.5454589,13.7013074 C10.3494967,13.7198244 10.1793843,13.9342721 10.192877,14.1256866 L11.1970458,20.8 L12.8018717,20.8 L13.7995797,14.175524 Z M12,11.6 C10.4266292,11.6 9.15,10.3233708 9.15,8.75 C9.15,7.17662915 10.4266292,5.9 12,5.9 C13.5733708,5.9 14.85,7.17662915 14.85,8.75 C14.85,10.3233708 13.5733708,11.6 12,11.6 Z M12,10.4 C12.9106292,10.4 13.65,9.66062915 13.65,8.75 C13.65,7.83937085 12.9106292,7.1 12,7.1 C11.0893708,7.1 10.35,7.83937085 10.35,8.75 C10.35,9.66062915 11.0893708,10.4 12,10.4 Z M7.59018449,2.47067093 L8.14213187,3.53620088 C5.37452663,4.96982783 3.6,7.82694915 3.6,11 C3.6,13.8377173 5.01716699,16.4341115 7.33154786,17.9843674 L6.66372157,18.9813669 C4.02018975,17.2106338 2.4,14.2422813 2.4,11 C2.4,7.37419955 4.42825279,4.10856004 7.59018449,2.47067093 Z M17.341055,18.9781653 L16.6726326,17.9815653 C18.9846256,16.4309053 20.4,13.8359354 20.4,11 C20.4,7.8265574 18.6250328,4.96914053 15.8568958,3.5356973 L16.4087038,2.47009516 C19.5712442,4.10777496 21.6,7.37375148 21.6,11 C21.6,14.2402435 19.9818574,17.206972 17.341055,18.9781653 Z" id="形状" fill="#000000" fill-rule="nonzero"></path>
    </g>
</svg>