<?xml version="1.0" encoding="UTF-8"?>
<svg width="24px" height="24px" viewBox="0 0 24 24" version="1.1" xmlns="http://www.w3.org/2000/svg" xmlns:xlink="http://www.w3.org/1999/xlink">
    <!-- Generator: Sketch 52.2 (67145) - http://www.bohemiancoding.com/sketch -->
    <title>icons_filled_tag</title>
    <desc>Created with Sketch.</desc>
    <g id="icons_filled_tag" stroke="none" stroke-width="1" fill="none" fill-rule="evenodd">
        <g id="icon28" fill="#000000" fill-rule="nonzero">
            <path d="M3.20710678,14.2071068 C2.81658249,13.8165825 2.81658249,13.1834175 3.20710678,12.7928932 L12.7071068,3.29289322 C12.8946432,3.10535684 13.1489971,3 13.4142136,3 L20,3 C20.5522847,3 21,3.44771525 21,4 L21,10.5857864 C21,10.8510029 20.8946432,11.1053568 20.7071068,11.2928932 L11.2071068,20.7928932 C10.8165825,21.1834175 10.1834175,21.1834175 9.79289322,20.7928932 L3.20710678,14.2071068 Z M16,10 C17.1045695,10 18,9.1045695 18,8 C18,6.8954305 17.1045695,6 16,6 C14.8954305,6 14,6.8954305 14,8 C14,9.1045695 14.8954305,10 16,10 Z" id="Combined-Shape"></path>
        </g>
    </g>
</svg>