<?xml version="1.0" encoding="UTF-8"?>
<svg width="40px" height="40px" viewBox="0 0 40 40" version="1.1" xmlns="http://www.w3.org/2000/svg" xmlns:xlink="http://www.w3.org/1999/xlink">
    <!-- Generator: Sketch 57.1 (83088) - https://sketch.com -->
    <title>画板备份</title>
    <desc>Created with Sketch.</desc>
    <g id="画板备份" stroke="none" stroke-width="1" fill="none" fill-rule="evenodd">
        <g id="方形默认头像">
            <g id="头像">
                <rect id="Rectangle-14" fill="#F2F2F2" fill-rule="evenodd" x="0" y="0" width="40" height="40" rx="4"></rect>
                <path d="M10,28.3660131 L10,27.6501577 C10,26.9337248 10.5209421,26.0987272 11.1650694,25.7844002 L17.084393,22.8958358 C17.942878,22.4769046 18.1424931,21.5490326 17.5225571,20.8142629 L17.1444839,20.3661574 C16.3752341,19.4544158 15.751634,17.7511074 15.751634,16.5587352 L15.751634,14.770803 C15.751634,12.4608346 17.6291306,10.5882353 19.9346405,10.5882353 C22.2448512,10.5882353 24.1176471,12.4632473 24.1176471,14.7714588 L24.1176471,16.5596713 C24.1176471,17.7508977 23.4911711,19.4592004 22.724797,20.3676581 L22.3467238,20.8158251 C21.73023,21.5466151 21.9228107,22.4767557 22.7848878,22.8972658 L28.7042116,25.7846354 C29.3476617,26.098502 29.869281,26.9282825 29.869281,27.6501577 L29.869281,28.3660131 C29.869281,28.9435658 29.4010821,29.4117647 28.8235294,29.4117647 L11.0457516,29.4117647 C10.468199,29.4117647 10,28.9435658 10,28.3660131 Z" id="Path-67" fill="#CCCCCC" fill-rule="nonzero"></path>
            </g>
        </g>
    </g>
</svg>