<?xml version="1.0" encoding="UTF-8"?>
<svg width="24px" height="24px" viewBox="0 0 24 24" version="1.1" xmlns="http://www.w3.org/2000/svg" xmlns:xlink="http://www.w3.org/1999/xlink">
    <!-- Generator: Sketch 52.2 (67145) - http://www.bohemiancoding.com/sketch -->
    <title>icons_filled_error</title>
    <desc>Created with Sketch.</desc>
    <g id="icons_filled_error" stroke="none" stroke-width="1" fill="none" fill-rule="evenodd">
        <g id="common_icons_info" fill="#000000" fill-rule="nonzero">
            <path d="M12,22 C6.4771525,22 2,17.5228475 2,12 C2,6.4771525 6.4771525,2 12,2 C17.5228475,2 22,6.4771525 22,12 C22,17.5228475 17.5228475,22 12,22 Z M11.2367191,6.13574219 L11.3460941,13.7324219 L12.6517582,13.7324219 L12.7611332,6.13574219 L11.2367191,6.13574219 Z M11.9955082,17.1025391 C12.5082035,17.1025391 12.8978519,16.7197266 12.8978519,16.2207031 C12.8978519,15.7216797 12.5082035,15.3388672 11.9955082,15.3388672 C11.4964848,15.3388672 11.1000004,15.7216797 11.1000004,16.2207031 C11.1000004,16.7197266 11.4964848,17.1025391 11.9955082,17.1025391 Z" id="Combined-Shape"></path>
        </g>
    </g>
</svg>