<?xml version="1.0" encoding="UTF-8"?>
<svg width="24px" height="24px" viewBox="0 0 24 24" version="1.1" xmlns="http://www.w3.org/2000/svg" xmlns:xlink="http://www.w3.org/1999/xlink">
    <title>画板</title>
    <g id="画板" stroke="none" stroke-width="1" fill="none" fill-rule="evenodd" fill-opacity="0.9">
        <path d="M18.34758,4.15985787 C19.3726519,3.74519965 20.2490471,4.1429806 20.7057545,5.28623704 C21.9347728,8.36205462 19.0579011,20 16.8008215,20 C16.0705439,20 15.3386783,19.3923472 14.4860374,18.3001071 C14.101753,17.8078354 13.7006079,17.2210425 13.2881718,16.5587639 C12.958235,16.0289605 12.633918,15.4719241 12.3223511,14.9081834 L12.0002446,14.3147604 L12.0002446,14.3147604 L11.9847115,14.3429683 C11.5816788,15.0975406 11.1517538,15.8523594 10.7118381,16.5587639 C10.2994019,17.2210425 9.89825684,17.8078354 9.51397239,18.3001071 C8.66133154,19.3923472 7.92946591,20 7.19918833,20 C4.94210874,20 2.06523705,8.36205462 3.29423846,5.28627938 C3.75096269,4.1429806 4.62735797,3.74519965 5.65242985,4.15985787 C6.39564541,4.46050063 7.21589598,5.17935201 8.13251411,6.25620674 C8.67798726,6.89703558 9.24860107,7.65590986 9.83591988,8.50901343 C10.4862067,9.45358058 11.1233014,10.4636395 11.721407,11.4734694 L12.0003469,11.9487083 L12.2786028,11.4734694 C12.7570873,10.6656054 13.2605248,9.85759497 13.7757073,9.08308696 L14.16409,8.50901343 C14.7514088,7.65590986 15.3220226,6.89703558 15.8674957,6.25620674 C16.7841139,5.17935201 17.6043644,4.46050063 18.34758,4.15985787 Z M5.2273652,5.19345192 C4.79449444,5.01834867 4.57146187,5.11957937 4.34060053,5.69748497 C3.93718552,6.7070964 4.1065894,9.25123302 4.70463216,12.1062439 L4.84452773,12.7453106 L4.99818327,13.3916279 C5.75305019,16.4453269 6.8390895,18.883739 7.19918833,18.883739 C7.44565719,18.883739 7.98366104,18.4370457 8.6240138,17.6167483 C8.98131507,17.1590424 9.36108814,16.6035123 9.75424905,15.9721854 C10.0733797,15.4597342 10.3883624,14.918681 10.6913837,14.3703733 L11.0577067,13.6934171 L11.0577067,13.6934171 L11.3650284,13.1015072 L11.043724,12.5388661 L10.7509418,12.0388496 C10.1648473,11.0492991 9.54083273,10.0599775 8.90641179,9.13845626 C8.33914911,8.314485 7.79064973,7.58502127 7.27248661,6.9762766 C6.46443992,6.026973 5.75850711,5.40830745 5.2273652,5.19345192 Z M19.6593924,5.69744263 C19.428548,5.11957937 19.2055154,5.01834867 18.7726446,5.19345192 C18.2415027,5.40830745 17.5355699,6.026973 16.7275232,6.9762766 C16.2093601,7.58502127 15.6608607,8.314485 15.093598,9.13845626 C14.5860613,9.87567327 14.0851846,10.6562825 13.605055,11.4456874 L13.0988648,12.293914 L12.6340435,13.1015072 L12.7934809,13.4099933 L13.0098815,13.820438 C13.4021199,14.5548008 13.8202532,15.2889171 14.2457608,15.9721854 C14.6389217,16.6035123 15.0186948,17.1590424 15.375996,17.6167483 C16.0163488,18.4370457 16.5543526,18.883739 16.8008215,18.883739 C17.1609203,18.883739 18.2469596,16.4453269 19.0018266,13.3916279 L19.1554821,12.7453106 C19.8651805,9.63656186 20.0927058,6.7818797 19.6593924,5.69744263 Z" id="形状" fill="#000000"></path>
    </g>
</svg>