<?xml version="1.0" encoding="UTF-8"?>
<svg width="24px" height="24px" viewBox="0 0 24 24" version="1.1" xmlns="http://www.w3.org/2000/svg" xmlns:xlink="http://www.w3.org/1999/xlink">
    <!-- Generator: Sketch 50.2 (55047) - http://www.bohemiancoding.com/sketch -->
    <title>icons_outlined_keyboard</title>
    <desc>Created with Sketch.</desc>
    <defs></defs>
    <g id="icons_outlined_keyboard" stroke="none" stroke-width="1" fill="none" fill-rule="evenodd">
        <g id="common_icons_info" fill="#000000">
            <g id="Group-19" transform="translate(2.000000, 2.000000)">
                <path d="M10,20 C4.4771525,20 0,15.5228475 0,10 C0,4.4771525 4.4771525,0 10,0 C15.5228475,0 20,4.4771525 20,10 C20,15.5228475 15.5228475,20 10,20 Z M10,18.8 C14.8601058,18.8 18.8,14.8601058 18.8,10 C18.8,5.1398942 14.8601058,1.2 10,1.2 C5.1398942,1.2 1.2,5.1398942 1.2,10 C1.2,14.8601058 5.1398942,18.8 10,18.8 Z" id="Combined-Shape" fill-rule="nonzero"></path>
                <path d="M4.5,6 L6.5,6 L6.5,8 L4.5,8 L4.5,6 Z M7.5,6 L9.5,6 L9.5,8 L7.5,8 L7.5,6 Z M10.5,6 L12.5,6 L12.5,8 L10.5,8 L10.5,6 Z M13.5,6 L15.5,6 L15.5,8 L13.5,8 L13.5,6 Z M4.5,9 L6.5,9 L6.5,11 L4.5,11 L4.5,9 Z M7.5,9 L9.5,9 L9.5,11 L7.5,11 L7.5,9 Z M7,13 L13,13 L13,15 L7,15 L7,13 Z M10.5,9 L12.5,9 L12.5,11 L10.5,11 L10.5,9 Z M13.5,9 L15.5,9 L15.5,11 L13.5,11 L13.5,9 Z" id="Combined-Shape"></path>
            </g>
        </g>
    </g>
</svg>